<svg version="1.1" viewBox="0.0 0.0 381.9265091863517 456.0" fill="none" stroke="none" stroke-linecap="square" stroke-miterlimit="10" xmlns:xlink="http://www.w3.org/1999/xlink" xmlns="http://www.w3.org/2000/svg"><clipPath id="p.0"><path d="m0 0l381.9265 0l0 456.0l-381.9265 0l0 -456.0z" clip-rule="nonzero"/></clipPath><g clip-path="url(#p.0)"><path fill="#000000" fill-opacity="0.0" d="m0 0l381.9265 0l0 456.0l-381.9265 0z" fill-rule="evenodd"/><path fill="#ffffff" d="m86.700836 15.691554l0 0c3.1530304 -8.665997 12.733978 -13.134397 21.399643 -9.980452l137.28027 49.964382c4.161392 1.514576 7.5508575 4.6202965 9.42276 8.633926c1.8719025 4.0136337 2.0728912 8.606415 0.55874634 12.767975l-80.99132 222.6019c-3.1530304 8.665985 -12.733978 13.134399 -21.399643 9.980438l-137.28027 -49.964386c-8.665664 -3.1539307 -13.134537 -12.735886 -9.981506 -21.401886z" fill-rule="evenodd"/><path stroke="#000000" stroke-width="1.0" stroke-linejoin="round" stroke-linecap="butt" d="m86.700836 15.691554l0 0c3.1530304 -8.665997 12.733978 -13.134397 21.399643 -9.980452l137.28027 49.964382c4.161392 1.514576 7.5508575 4.6202965 9.42276 8.633926c1.8719025 4.0136337 2.0728912 8.606415 0.55874634 12.767975l-80.99132 222.6019c-3.1530304 8.665985 -12.733978 13.134399 -21.399643 9.980438l-137.28027 -49.964386c-8.665664 -3.1539307 -13.134537 -12.735886 -9.981506 -21.401886z" fill-rule="evenodd"/><path fill="#000000" d="m145.96107 115.37271c-2.397049 3.696167 -5.0063934 6.718025 -7.828018 9.065582c-2.8044434 2.3538208 -6.8081512 4.738388 -12.011169 7.1536865c-3.3776321 1.5741119 -8.381699 3.3090363 -15.012199 5.204773c-6.613304 1.9019928 -11.773315 4.332947 -15.4800415 7.2928467c-2.635521 2.1038055 -4.570648 4.851898 -5.805374 8.244293c-1.4850159 4.0800323 -1.0929337 8.220276 1.1762543 12.420731c2.2691803 4.20047 5.725601 7.145767 10.369247 8.835907c4.2824707 1.5587006 8.529869 1.8759308 12.742195 0.95173645c4.2350845 -0.9332428 8.306099 -3.1548615 12.213051 -6.664871l0 0c-3.347641 9.839691 -8.542496 16.272797 -15.584579 19.299332c-7.0193176 3.017517 -15.27581 2.7985687 -24.769493 -0.6568451l-1.467804 2.347107l61.296143 22.309921l0.3842926 -2.7414703c-6.918503 -2.9853668 -12.081604 -6.3787994 -15.489334 -10.180298c-3.4021606 -3.8167877 -5.354706 -8.0577545 -5.857643 -12.7229c-0.4801712 -4.674164 0.48033142 -10.390091 2.8815079 -17.147812l0 0c0.90663147 5.054352 2.402649 9.051285 4.488037 11.990784c2.7638397 3.9651642 6.2612 6.7177124 10.492081 8.257614c4.6436462 1.6901398 9.150482 1.6691742 13.520508 -0.06289673c4.3700256 -1.7320709 7.3476105 -4.77565 8.932724 -9.130753c1.1513062 -3.1631622 1.3341827 -6.635559 0.5486145 -10.41716c-0.7799988 -3.7968903 -3.7016907 -9.8701935 -8.765091 -18.21994c-5.0406494 -8.358765 -8.244919 -14.993515 -9.612839 -19.904266c-1.3679199 -4.9107513 -1.8216095 -10.085785 -1.3610687 -15.525101z" fill-rule="evenodd"/><path stroke="#000000" stroke-width="1.0" stroke-linejoin="round" stroke-linecap="butt" d="m145.96107 115.37271c-2.397049 3.696167 -5.0063934 6.718025 -7.828018 9.065582c-2.8044434 2.3538208 -6.8081512 4.738388 -12.011169 7.1536865c-3.3776321 1.5741119 -8.381699 3.3090363 -15.012199 5.204773c-6.613304 1.9019928 -11.773315 4.332947 -15.4800415 7.2928467c-2.635521 2.1038055 -4.570648 4.851898 -5.805374 8.244293c-1.4850159 4.0800323 -1.0929337 8.220276 1.1762543 12.420731c2.2691803 4.20047 5.725601 7.145767 10.369247 8.835907c4.2824707 1.5587006 8.529869 1.8759308 12.742195 0.95173645c4.2350845 -0.9332428 8.306099 -3.1548615 12.213051 -6.664871l0 0c-3.347641 9.839691 -8.542496 16.272797 -15.584579 19.299332c-7.0193176 3.017517 -15.27581 2.7985687 -24.769493 -0.6568451l-1.467804 2.347107l61.296143 22.309921l0.3842926 -2.7414703c-6.918503 -2.9853668 -12.081604 -6.3787994 -15.489334 -10.180298c-3.4021606 -3.8167877 -5.354706 -8.0577545 -5.857643 -12.7229c-0.4801712 -4.674164 0.48033142 -10.390091 2.8815079 -17.147812l0 0c0.90663147 5.054352 2.402649 9.051285 4.488037 11.990784c2.7638397 3.9651642 6.2612 6.7177124 10.492081 8.257614c4.6436462 1.6901398 9.150482 1.6691742 13.520508 -0.06289673c4.3700256 -1.7320709 7.3476105 -4.77565 8.932724 -9.130753c1.1513062 -3.1631622 1.3341827 -6.635559 0.5486145 -10.41716c-0.7799988 -3.7968903 -3.7016907 -9.8701935 -8.765091 -18.21994c-5.0406494 -8.358765 -8.244919 -14.993515 -9.612839 -19.904266c-1.3679199 -4.9107513 -1.8216095 -10.085785 -1.3610687 -15.525101z" fill-rule="evenodd"/><path fill="#ffffff" d="m293.6371 15.693121l0 0c-3.1538086 -8.664097 -12.73407 -13.130957 -21.398102 -9.977011l-137.25464 49.96438c-4.1606293 1.5145798 -7.549202 4.619934 -9.420288 8.632927c-1.8710785 4.012985 -2.0714035 8.604889 -0.5568924 12.765533l81.02001 222.57727c3.1538086 8.664124 12.73407 13.130981 21.398102 9.97702l137.25465 -49.964386c8.664032 -3.1539307 13.130981 -12.7343445 9.977173 -21.398453z" fill-rule="evenodd"/><path stroke="#000000" stroke-width="1.0" stroke-linejoin="round" stroke-linecap="butt" d="m293.6371 15.693121l0 0c-3.1538086 -8.664097 -12.73407 -13.130957 -21.398102 -9.977011l-137.25464 49.96438c-4.1606293 1.5145798 -7.549202 4.619934 -9.420288 8.632927c-1.8710785 4.012985 -2.0714035 8.604889 -0.5568924 12.765533l81.02001 222.57727c3.1538086 8.664124 12.73407 13.130981 21.398102 9.97702l137.25465 -49.964386c8.664032 -3.1539307 13.130981 -12.7343445 9.977173 -21.398453z" fill-rule="evenodd"/><path fill="#000000" d="m44.660202 219.1861l-0.17321777 14.355576l-9.033379 -3.2878723l9.206596 -11.067703zm5.4100227 -13.618027l-27.300426 32.47055l-6.1058197 -0.6680298l-1.2187357 3.348465l14.984227 5.4538116l1.2187366 -3.3484802l-4.3696136 -2.9462738l5.126932 -6.059799l12.013458 4.3725433l-0.15250015 8.068741l-4.4323616 -0.45578003l-1.2187347 3.348465l19.398476 7.0604553l1.2187347 -3.348465l-4.9949875 -3.3723297l0.8149376 -42.11046z" fill-rule="evenodd"/><path stroke="#000000" stroke-width="1.0" stroke-linejoin="round" stroke-linecap="butt" d="m44.660202 219.1861l-0.17321777 14.355576l-9.033379 -3.2878723l9.206596 -11.067703zm5.4100227 -13.618027l-27.300426 32.47055l-6.1058197 -0.6680298l-1.2187357 3.348465l14.984227 5.4538116l1.2187366 -3.3484802l-4.3696136 -2.9462738l5.126932 -6.059799l12.013458 4.3725433l-0.15250015 8.068741l-4.4323616 -0.45578003l-1.2187347 3.348465l19.398476 7.0604553l1.2187347 -3.348465l-4.9949875 -3.3723297l0.8149376 -42.11046z" fill-rule="evenodd"/><path fill="#000000" d="m227.04214 259.88922l9.094894 11.108398l-9.033371 3.2878418l-0.061523438 -14.39624zm-4.6091766 -13.909531l-0.041671753 42.422226l-5.106735 3.4129944l1.21875 3.3484497l14.984222 -5.4537354l-1.21875 -3.3484497l-5.24115 0.5516968l0.032302856 -7.9375916l12.013458 -4.372467l5.0696716 6.2790833l-3.6883698 2.499878l1.21875 3.3484802l19.398483 -7.060364l-1.21875 -3.3484802l-5.9940796 0.62731934l-26.443817 -32.782425z" fill-rule="evenodd"/><path stroke="#000000" stroke-width="1.0" stroke-linejoin="round" stroke-linecap="butt" d="m227.04214 259.88922l9.094894 11.108398l-9.033371 3.2878418l-0.061523438 -14.39624zm-4.6091766 -13.909531l-0.041671753 42.422226l-5.106735 3.4129944l1.21875 3.3484497l14.984222 -5.4537354l-1.21875 -3.3484497l-5.24115 0.5516968l0.032302856 -7.9375916l12.013458 -4.372467l5.0696716 6.2790833l-3.6883698 2.499878l1.21875 3.3484802l19.398483 -7.060364l-1.21875 -3.3484802l-5.9940796 0.62731934l-26.443817 -32.782425z" fill-rule="evenodd"/><path fill="#000000" d="m262.86893 42.579506l9.094879 11.108398l-9.033356 3.2878304l-0.061523438 -14.396229zm-4.609192 -13.909523l-0.041656494 42.422234l-5.1067505 3.4129715l1.21875 3.3484726l14.984222 -5.4537354l-1.21875 -3.3484726l-5.24115 0.55171967l0.032318115 -7.9375916l12.013458 -4.3724785l5.0696716 6.279072l-3.688385 2.4998932l1.21875 3.3484726l19.398499 -7.0603676l-1.21875 -3.3484688l-5.9940796 0.6273308l-26.443817 -32.782444z" fill-rule="evenodd"/><path stroke="#000000" stroke-width="1.0" stroke-linejoin="round" stroke-linecap="butt" d="m262.86893 42.579506l9.094879 11.108398l-9.033356 3.2878304l-0.061523438 -14.396229zm-4.609192 -13.909523l-0.041656494 42.422234l-5.1067505 3.4129715l1.21875 3.3484726l14.984222 -5.4537354l-1.21875 -3.3484726l-5.24115 0.55171967l0.032318115 -7.9375916l12.013458 -4.3724785l5.0696716 6.279072l-3.688385 2.4998932l1.21875 3.3484726l19.398499 -7.0603676l-1.21875 -3.3484688l-5.9940796 0.6273308l-26.443817 -32.782444z" fill-rule="evenodd"/><path fill="#000000" d="m97.55335 344.02444l4.747101 13.549072l-9.613129 0l4.866028 -13.549072zm0.42614746 -14.647064l-14.548531 39.84958l-5.9660873 1.4605408l0 3.563385l15.9459 0l0 -3.563385l-5.113785 -1.2741089l2.7451935 -7.4478455l12.78447 0l2.616356 7.634308l-4.3209534 1.0876465l0 3.563385l20.643456 0l0 -3.563385l-5.8471603 -1.4605408l-13.636772 -39.84958z" fill-rule="evenodd"/><path fill="#000000" d="m142.61302 358.97192l0 8.721954c-1.215683 1.4018555 -2.7385864 2.1027832 -4.5687103 2.1027832c-1.1363983 0 -2.1010132 -0.35910034 -2.8938599 -1.077301c-0.78622437 -0.72509766 -1.1793365 -1.70224 -1.1793365 -2.9314575c0 -2.037201 0.8721161 -3.6807861 2.6163483 -4.930725c1.7442474 -1.2568359 3.7527618 -1.8852539 6.0255585 -1.8852539zm-3.656952 -17.495697c-2.1076202 0 -4.278015 0.28659058 -6.5111694 0.8597717c-2.2331543 0.57318115 -3.7362366 1.0289612 -4.509247 1.3673401l-1.8235245 0.8286743c0 3.4804993 1.3808594 6.04599 4.1425705 7.6964417l7.7301483 -7.002411c0.89193726 0 1.6418304 0.13812256 2.2496643 0.41433716c0.6078491 0.27624512 1.0637207 0.5870056 1.3676453 0.9322815c0.31053162 0.3383789 0.54507446 0.91156006 0.7036438 1.7195435c0.16516113 0.8010559 0.2576599 1.4881592 0.27748108 2.0613403c0.019821167 0.57318115 0.02973938 1.4951172 0.02973938 2.765747l0 1.9163513c-6.494644 0 -11.195496 0.9667969 -14.10257 2.9004211c-2.9004517 1.9266968 -4.3506775 4.7338867 -4.3506775 8.421539c0 2.9280396 0.9447937 5.13443 2.8343887 6.619171c1.8895798 1.4847107 4.235054 2.2270813 7.036415 2.2270813c3.2043762 0 6.1676025 -1.0807495 8.889664 -3.2422485c1.4997864 2.161499 3.7924042 3.2422485 6.8778534 3.2422485c1.3015594 0 2.560196 -0.2762146 3.775879 -0.8286743c1.215683 -0.5524597 2.0052032 -0.9978943 2.3685913 -1.3362732c0.36999512 -0.3383789 0.6573944 -0.6145935 0.86221313 -0.8286743l0 -2.7346802l-4.757019 0l0 -17.050262c0 -7.2993774 -4.3638916 -10.949066 -13.09169 -10.949066z" fill-rule="evenodd"/><path fill="#000000" d="m184.37926 341.47623c-4.175598 0 -7.7863007 1.5917664 -10.832108 4.7753296l0 -3.8223267l-4.8164825 0l-9.741959 2.4135437l0 3.3769226l5.1831512 0l0 21.380157l-5.1831512 1.2741089l0 3.3769226l20.950668 0l0 -3.3769226l-6.392227 -1.2741089l0 -19.277374c0.9712219 -0.8908386 1.9457397 -1.5710449 2.9235687 -2.0406494l7.670685 1.3362732c0.4030304 -1.691925 0.60453796 -3.5150146 0.60453796 -5.4693604c0 -0.97369385 -0.1222229 -1.8645325 -0.36668396 -2.6725159z" fill-rule="evenodd"/><path fill="#000000" d="m186.14577 342.42923l0 3.376892l5.1831665 1.2741089l0 18.13794c0 6.657135 3.1052704 9.985687 9.315811 9.985687c4.175598 0 7.707016 -1.3776855 10.594269 -4.133087c1.1760406 2.7554016 3.2241974 4.133087 6.14447 4.133087c0.60783386 0 1.2652283 -0.06561279 1.9721832 -0.19680786c0.71354675 -0.124298096 1.4039764 -0.32455444 2.0712738 -0.60079956c0.6739197 -0.2762146 1.2850647 -0.54901123 1.833435 -0.81832886c0.5483856 -0.2762146 1.2685394 -0.73547363 2.1604767 -1.3776855l0 -2.7346802l-4.747101 0l0 -27.046326l-13.398926 0l0 3.376892l3.9641876 1.2741089l0 19.536346c-0.7730255 1.0565796 -1.7904968 1.9059753 -3.052414 2.5482178c-1.2553253 0.63531494 -2.4710083 0.9530029 -3.647049 0.9530029c-1.5460358 0 -2.57341 -0.41436768 -3.0821533 -1.243042c-0.502121 -0.82870483 -0.7531891 -2.3237915 -0.7531891 -4.4852905l0 -21.960236z" fill-rule="evenodd"/><path fill="#000000" d="m242.16995 341.47623c-3.9773865 0 -7.194977 0.8286743 -9.652771 2.4860535c-2.457779 1.6504822 -3.686676 4.067505 -3.686676 7.2510376c0 2.5896606 0.63757324 4.70282 1.9127045 6.3394775c1.2817535 1.6297607 3.3233185 3.079956 6.1246643 4.3506165c2.1538696 0.97369385 3.6140137 1.6539307 4.380417 2.0406494c0.77301025 0.37982178 1.5856628 0.8977356 2.437973 1.553772c0.8522949 0.6560669 1.2784424 1.4295044 1.2784424 2.320343c0 2.168396 -2.3719025 3.252594 -7.1157074 3.252594c-0.858902 0 -2.0184174 -0.041412354 -3.4785614 -0.124298096l-2.1902008 -6.30838l-3.409195 0l0 9.105194c3.5347137 0.97372437 7.228012 1.4605713 11.07988 1.4605713c4.1029205 0 7.3898773 -0.82522583 9.860886 -2.475708c2.4776154 -1.6573792 3.7164154 -4.0570984 3.7164154 -7.1992188c0 -2.7554016 -0.65078735 -4.9479675 -1.9523621 -6.5777283c-1.2949524 -1.6366577 -3.7890778 -3.3251038 -7.482376 -5.0653687c-2.067978 -0.932251 -3.5809784 -1.6746216 -4.538986 -2.2270813c-0.95140076 -0.5524597 -1.6120911 -1.1049194 -1.9820862 -1.6573792c-0.36338806 -0.5524597 -0.54507446 -1.0807495 -0.54507446 -1.5848694c0 -1.995758 1.9490509 -2.9936523 5.8471527 -2.9936523c1.215683 0 2.4346771 0.10360718 3.656952 0.3107605l1.8829956 5.604004l3.171341 0l0 -8.649445c-2.5965424 -0.8079529 -5.7018127 -1.2119446 -9.315826 -1.2119446z" fill-rule="evenodd"/><path fill="#000000" d="m266.15582 323.3383l-9.741943 2.4135742l0 3.376892l5.1732483 0l0 40.4711l-5.1732483 1.2741089l0 3.3769226l18.512695 0l0 -3.3769226l-3.9542542 -1.2741089l0 -19.722778c1.25531 -1.0220642 2.431366 -1.7437134 3.5281067 -2.164978c1.0967712 -0.42123413 2.0514526 -0.63186646 2.8641052 -0.63186646c1.5394287 0 2.5403748 0.4972229 3.0028687 1.4916382c0.4691162 0.9944458 0.7036438 2.5516663 0.7036438 4.671753l0 16.356232l-3.9542542 1.2741089l0 3.3769226l18.512695 0l0 -3.3769226l-5.1732483 -1.2741089l0 -18.13794c0 -1.4363708 -0.2444458 -2.7691956 -0.7333679 -3.998413c-0.48892212 -1.2361145 -1.1694336 -2.2996216 -2.041565 -3.1904602c-0.87210083 -0.8908386 -1.9490356 -1.5779419 -3.2308044 -2.0613403c-1.2751465 -0.49032593 -2.705536 -0.73547363 -4.2911987 -0.73547363c-3.653656 0 -6.7160034 1.3569641 -9.186981 4.070923l0 -22.208862z" fill-rule="evenodd"/><path stroke="#000000" stroke-width="1.0" stroke-linejoin="round" stroke-linecap="butt" d="m97.55335 344.02444l4.747101 13.549072l-9.613129 0l4.866028 -13.549072zm0.42614746 -14.647064l-14.548531 39.84958l-5.9660873 1.4605408l0 3.563385l15.9459 0l0 -3.563385l-5.113785 -1.2741089l2.7451935 -7.4478455l12.78447 0l2.616356 7.634308l-4.3209534 1.0876465l0 3.563385l20.643456 0l0 -3.563385l-5.8471603 -1.4605408l-13.636772 -39.84958z" fill-rule="evenodd"/><path stroke="#000000" stroke-width="1.0" stroke-linejoin="round" stroke-linecap="butt" d="m142.61302 358.97192l0 8.721954c-1.215683 1.4018555 -2.7385864 2.1027832 -4.5687103 2.1027832c-1.1363983 0 -2.1010132 -0.35910034 -2.8938599 -1.077301c-0.78622437 -0.72509766 -1.1793365 -1.70224 -1.1793365 -2.9314575c0 -2.037201 0.8721161 -3.6807861 2.6163483 -4.930725c1.7442474 -1.2568359 3.7527618 -1.8852539 6.0255585 -1.8852539zm-3.656952 -17.495697c-2.1076202 0 -4.278015 0.28659058 -6.5111694 0.8597717c-2.2331543 0.57318115 -3.7362366 1.0289612 -4.509247 1.3673401l-1.8235245 0.8286743c0 3.4804993 1.3808594 6.04599 4.1425705 7.6964417l7.7301483 -7.002411c0.89193726 0 1.6418304 0.13812256 2.2496643 0.41433716c0.6078491 0.27624512 1.0637207 0.5870056 1.3676453 0.9322815c0.31053162 0.3383789 0.54507446 0.91156006 0.7036438 1.7195435c0.16516113 0.8010559 0.2576599 1.4881592 0.27748108 2.0613403c0.019821167 0.57318115 0.02973938 1.4951172 0.02973938 2.765747l0 1.9163513c-6.494644 0 -11.195496 0.9667969 -14.10257 2.9004211c-2.9004517 1.9266968 -4.3506775 4.7338867 -4.3506775 8.421539c0 2.9280396 0.9447937 5.13443 2.8343887 6.619171c1.8895798 1.4847107 4.235054 2.2270813 7.036415 2.2270813c3.2043762 0 6.1676025 -1.0807495 8.889664 -3.2422485c1.4997864 2.161499 3.7924042 3.2422485 6.8778534 3.2422485c1.3015594 0 2.560196 -0.2762146 3.775879 -0.8286743c1.215683 -0.5524597 2.0052032 -0.9978943 2.3685913 -1.3362732c0.36999512 -0.3383789 0.6573944 -0.6145935 0.86221313 -0.8286743l0 -2.7346802l-4.757019 0l0 -17.050262c0 -7.2993774 -4.3638916 -10.949066 -13.09169 -10.949066z" fill-rule="evenodd"/><path stroke="#000000" stroke-width="1.0" stroke-linejoin="round" stroke-linecap="butt" d="m184.37926 341.47623c-4.175598 0 -7.7863007 1.5917664 -10.832108 4.7753296l0 -3.8223267l-4.8164825 0l-9.741959 2.4135437l0 3.3769226l5.1831512 0l0 21.380157l-5.1831512 1.2741089l0 3.3769226l20.950668 0l0 -3.3769226l-6.392227 -1.2741089l0 -19.277374c0.9712219 -0.8908386 1.9457397 -1.5710449 2.9235687 -2.0406494l7.670685 1.3362732c0.4030304 -1.691925 0.60453796 -3.5150146 0.60453796 -5.4693604c0 -0.97369385 -0.1222229 -1.8645325 -0.36668396 -2.6725159z" fill-rule="evenodd"/><path stroke="#000000" stroke-width="1.0" stroke-linejoin="round" stroke-linecap="butt" d="m186.14577 342.42923l0 3.376892l5.1831665 1.2741089l0 18.13794c0 6.657135 3.1052704 9.985687 9.315811 9.985687c4.175598 0 7.707016 -1.3776855 10.594269 -4.133087c1.1760406 2.7554016 3.2241974 4.133087 6.14447 4.133087c0.60783386 0 1.2652283 -0.06561279 1.9721832 -0.19680786c0.71354675 -0.124298096 1.4039764 -0.32455444 2.0712738 -0.60079956c0.6739197 -0.2762146 1.2850647 -0.54901123 1.833435 -0.81832886c0.5483856 -0.2762146 1.2685394 -0.73547363 2.1604767 -1.3776855l0 -2.7346802l-4.747101 0l0 -27.046326l-13.398926 0l0 3.376892l3.9641876 1.2741089l0 19.536346c-0.7730255 1.0565796 -1.7904968 1.9059753 -3.052414 2.5482178c-1.2553253 0.63531494 -2.4710083 0.9530029 -3.647049 0.9530029c-1.5460358 0 -2.57341 -0.41436768 -3.0821533 -1.243042c-0.502121 -0.82870483 -0.7531891 -2.3237915 -0.7531891 -4.4852905l0 -21.960236z" fill-rule="evenodd"/><path stroke="#000000" stroke-width="1.0" stroke-linejoin="round" stroke-linecap="butt" d="m242.16995 341.47623c-3.9773865 0 -7.194977 0.8286743 -9.652771 2.4860535c-2.457779 1.6504822 -3.686676 4.067505 -3.686676 7.2510376c0 2.5896606 0.63757324 4.70282 1.9127045 6.3394775c1.2817535 1.6297607 3.3233185 3.079956 6.1246643 4.3506165c2.1538696 0.97369385 3.6140137 1.6539307 4.380417 2.0406494c0.77301025 0.37982178 1.5856628 0.8977356 2.437973 1.553772c0.8522949 0.6560669 1.2784424 1.4295044 1.2784424 2.320343c0 2.168396 -2.3719025 3.252594 -7.1157074 3.252594c-0.858902 0 -2.0184174 -0.041412354 -3.4785614 -0.124298096l-2.1902008 -6.30838l-3.409195 0l0 9.105194c3.5347137 0.97372437 7.228012 1.4605713 11.07988 1.4605713c4.1029205 0 7.3898773 -0.82522583 9.860886 -2.475708c2.4776154 -1.6573792 3.7164154 -4.0570984 3.7164154 -7.1992188c0 -2.7554016 -0.65078735 -4.9479675 -1.9523621 -6.5777283c-1.2949524 -1.6366577 -3.7890778 -3.3251038 -7.482376 -5.0653687c-2.067978 -0.932251 -3.5809784 -1.6746216 -4.538986 -2.2270813c-0.95140076 -0.5524597 -1.6120911 -1.1049194 -1.9820862 -1.6573792c-0.36338806 -0.5524597 -0.54507446 -1.0807495 -0.54507446 -1.5848694c0 -1.995758 1.9490509 -2.9936523 5.8471527 -2.9936523c1.215683 0 2.4346771 0.10360718 3.656952 0.3107605l1.8829956 5.604004l3.171341 0l0 -8.649445c-2.5965424 -0.8079529 -5.7018127 -1.2119446 -9.315826 -1.2119446z" fill-rule="evenodd"/><path stroke="#000000" stroke-width="1.0" stroke-linejoin="round" stroke-linecap="butt" d="m266.15582 323.3383l-9.741943 2.4135742l0 3.376892l5.1732483 0l0 40.4711l-5.1732483 1.2741089l0 3.3769226l18.512695 0l0 -3.3769226l-3.9542542 -1.2741089l0 -19.722778c1.25531 -1.0220642 2.431366 -1.7437134 3.5281067 -2.164978c1.0967712 -0.42123413 2.0514526 -0.63186646 2.8641052 -0.63186646c1.5394287 0 2.5403748 0.4972229 3.0028687 1.4916382c0.4691162 0.9944458 0.7036438 2.5516663 0.7036438 4.671753l0 16.356232l-3.9542542 1.2741089l0 3.3769226l18.512695 0l0 -3.3769226l-5.1732483 -1.2741089l0 -18.13794c0 -1.4363708 -0.2444458 -2.7691956 -0.7333679 -3.998413c-0.48892212 -1.2361145 -1.1694336 -2.2996216 -2.041565 -3.1904602c-0.87210083 -0.8908386 -1.9490356 -1.5779419 -3.2308044 -2.0613403c-1.2751465 -0.49032593 -2.705536 -0.73547363 -4.2911987 -0.73547363c-3.653656 0 -6.7160034 1.3569641 -9.186981 4.070923l0 -22.208862z" fill-rule="evenodd"/><path fill="#000000" d="m96.92123 386.0967l-0.118927 3.5633545l5.351639 1.3362427l-1.8829803 34.628845l-5.7877045 1.4605713l0 3.5633545l15.955818 0l0 -3.5633545l-5.421013 -1.3362732l1.40728 -26.922028l13.210625 32.14279l3.9542618 0l13.63678 -31.95633l1.6451263 26.735565l-5.351639 1.3362732l0 3.5633545l21.366913 0l0 -3.5633545l-5.8471527 -1.398407l-2.1307526 -34.69101l5.4210205 -1.3362427l0 -3.5633545l-14.736832 0l-13.032234 30.361084l-12.536713 -30.361084z" fill-rule="evenodd"/><path fill="#000000" d="m208.04095 402.32864c1.9953156 0 3.4785767 0.66986084 4.4497986 2.0095825c0.9712219 1.3327942 1.4568329 3.0177917 1.4568329 5.0549927c0 2.037201 -0.48561096 3.7049255 -1.4568329 5.0032043c-0.9712219 1.2913818 -2.454483 1.9370728 -4.4497986 1.9370728c-2.067978 0 -3.5479279 -0.6456909 -4.439865 -1.9370728c-0.8919525 -1.2982788 -1.3379211 -2.9660034 -1.3379211 -5.0032043c0 -2.037201 0.44596863 -3.7221985 1.3379211 -5.0549927c0.89193726 -1.3397217 2.3718872 -2.0095825 4.439865 -2.0095825zm-32.083725 13.041504l0 8.721924c-1.215683 1.401886 -2.7385864 2.1028137 -4.5687256 2.1028137c-1.136383 0 -2.1010132 -0.35910034 -2.8938446 -1.077301c-0.78622437 -0.72509766 -1.1793365 -1.7022705 -1.1793365 -2.931488c0 -2.037201 0.8721161 -3.6807556 2.6163483 -4.9306946c1.7442474 -1.2568359 3.7527618 -1.8852539 6.0255585 -1.8852539zm-3.656952 -17.495697c-2.1076202 0 -4.278015 0.28659058 -6.5111694 0.8597412c-2.2331543 0.57318115 -3.7362366 1.0289612 -4.509247 1.3673401l-1.8235321 0.82870483c0 3.4804993 1.3808594 6.0459595 4.142578 7.6964417l7.7301483 -7.002411c0.89193726 0 1.6418152 0.13809204 2.2496643 0.41433716c0.60783386 0.2762146 1.0637207 0.5869751 1.3676453 0.9322815c0.31051636 0.3383789 0.54507446 0.91156006 0.7036438 1.7195129c0.16516113 0.8010559 0.2576599 1.4881897 0.27748108 2.0613708c0.019821167 0.57318115 0.02973938 1.4950867 0.02973938 2.765747l0 1.9163513c-6.494644 0 -11.195496 0.9667969 -14.10257 2.9003906c-2.9004517 1.9267273 -4.3506775 4.7338867 -4.3506775 8.42157c0 2.9280396 0.9447937 5.1343994 2.834381 6.6191406c1.8895874 1.4847412 4.2350616 2.2271118 7.0364227 2.2271118c3.2043762 0 6.1675873 -1.0807495 8.889664 -3.2422485c1.4997864 2.161499 3.792389 3.2422485 6.8778534 3.2422485c1.3015594 0 2.560196 -0.27624512 3.775879 -0.82870483c1.2156677 -0.5524597 2.0052032 -0.99786377 2.3685913 -1.3362427c0.36999512 -0.3383789 0.6573944 -0.614624 0.86221313 -0.82870483l0 -2.7346497l-4.757019 0l0 -17.050293c0 -7.2993774 -4.3638916 -10.949036 -13.09169 -10.949036zm38.97148 36.524445c2.801361 0 4.730591 0.34875488 5.7877045 1.0462341c1.0571136 0.7043762 1.5856781 1.7367859 1.5856781 3.097229c0 1.7816772 -0.9150696 3.2664185 -2.7451935 4.454193c-1.8235321 1.1877747 -4.4431915 1.7816772 -7.8589935 1.7816772c-5.1930695 0 -7.7895966 -1.9508667 -7.7895966 -5.8526c0 -1.698822 0.44596863 -3.2077332 1.3379059 -4.5267334zm15.767517 -37.166687l-9.494202 3.6980286c-2.6824188 -1.698822 -5.850464 -2.5482178 -9.50412 -2.5482178c-4.2218475 0 -7.713623 1.073822 -10.475327 3.221527c-2.7551117 2.1407776 -4.13266 4.737335 -4.13266 7.789673c0 2.037201 0.5880127 3.8948364 1.7640533 5.572937c1.1760406 1.6711731 2.8211823 2.9970703 4.9354095 3.9776917l-7.0066833 6.2980347c-0.07928467 0.7182007 -0.049560547 1.4191284 0.08918762 2.1028137c0.14535522 0.6767578 0.34025574 1.2706604 0.5847168 1.7816772c0.6474762 1.2706604 1.5196075 2.309967 2.6163635 3.1179504c-3.6140137 1.9888306 -5.4210205 4.682068 -5.4210205 8.079712c0 5.7248535 5.744751 8.58728 17.234268 8.58728c5.4375305 0 9.669281 -1.2188721 12.695267 -3.6565857c3.026001 -2.4377441 4.538986 -5.289795 4.538986 -8.556213c0 -3.3562012 -1.0868378 -5.9665527 -3.2605286 -7.8311157c-2.1736908 -1.8645325 -5.269058 -2.796814 -9.286087 -2.796814l-4.4497833 0c-2.0283508 0 -3.4686584 -0.09667969 -4.3209534 -0.29003906c-0.8523102 -0.19335938 -1.5196075 -0.7147522 -2.0019226 -1.564148l2.675827 -3.8741455c0.68711853 0.04144287 1.7607574 0.062164307 3.2208862 0.062164307c4.505951 0 8.086929 -1.0496826 10.74292 -3.1490173c2.662613 -2.0993347 3.9939117 -4.7200623 3.9939117 -7.8621826c0 -1.9129028 -0.6474762 -3.7601929 -1.9424438 -5.54187l6.699463 0c0.15856934 -0.7182007 0.237854 -1.7989502 0.237854 -3.2422485c0 -1.2292175 -0.24446106 -2.3548584 -0.7333832 -3.376892z" fill-rule="evenodd"/><path fill="#000000" d="m239.40733 383.17557c-1.5856628 0 -2.92688 0.5628052 -4.023636 1.688446c-1.096756 1.1187439 -1.6451263 2.5068054 -1.6451263 4.1641846c0 1.6987915 0.54837036 3.1213684 1.6451263 4.2677307c1.096756 1.1394653 2.437973 1.7091675 4.023636 1.7091675c1.6187134 0 2.9665375 -0.56970215 4.0434723 -1.7091675c1.0769348 -1.1463623 1.6154022 -2.5689392 1.6154022 -4.2677307c0 -1.6573792 -0.5384674 -3.0454407 -1.6154022 -4.1641846c-1.0769348 -1.1256409 -2.424759 -1.688446 -4.0434723 -1.688446zm-0.12882996 15.651855l-9.741959 2.4135742l0 3.376892l5.1831512 0l0 21.380188l-5.1831512 1.2741089l0 3.376892l19.73169 0l0 -3.376892l-5.1732483 -1.2741089l0 -27.170654z" fill-rule="evenodd"/><path fill="#000000" d="m267.53586 397.87445c-4.2218323 0 -7.8854065 1.5606995 -10.990692 4.682068c-3.1052551 3.114502 -4.657898 7.1336365 -4.657898 12.057434c0 5.2138367 1.6220093 9.350372 4.866028 12.409607c3.2506409 3.0523376 7.1685486 4.5785217 11.753784 4.5785217c3.4488525 0 6.81839 -0.72164917 10.108643 -2.1649475l-0.7333679 -3.749817c-1.1760254 0.37982178 -2.3223572 0.6767578 -3.4389038 0.8908386c-1.1165771 0.21408081 -2.262909 0.32110596 -3.4389343 0.32110596c-2.801361 0 -5.0741577 -0.8701172 -6.81839 -2.6103516c-1.869751 -2.1269836 -2.7815247 -5.3105164 -2.7352905 -9.550659c0 -3.7774353 0.64749146 -6.7158203 1.9424438 -8.815186c1.3015747 -2.0993347 2.804657 -3.4045105 4.5092773 -3.9155273l0.3666687 0l5.232727 6.2980347c2.8410034 -1.6504822 4.3242493 -4.2366943 4.4497986 -7.758606c-3.4158325 -1.7816772 -6.887787 -2.6725159 -10.415894 -2.6725159z" fill-rule="evenodd"/><path stroke="#000000" stroke-width="1.0" stroke-linejoin="round" stroke-linecap="butt" d="m96.92123 386.0967l-0.118927 3.5633545l5.351639 1.3362427l-1.8829803 34.628845l-5.7877045 1.4605713l0 3.5633545l15.955818 0l0 -3.5633545l-5.421013 -1.3362732l1.40728 -26.922028l13.210625 32.14279l3.9542618 0l13.63678 -31.95633l1.6451263 26.735565l-5.351639 1.3362732l0 3.5633545l21.366913 0l0 -3.5633545l-5.8471527 -1.398407l-2.1307526 -34.69101l5.4210205 -1.3362427l0 -3.5633545l-14.736832 0l-13.032234 30.361084l-12.536713 -30.361084z" fill-rule="evenodd"/><path stroke="#000000" stroke-width="1.0" stroke-linejoin="round" stroke-linecap="butt" d="m208.04095 402.32864c1.9953156 0 3.4785767 0.66986084 4.4497986 2.0095825c0.9712219 1.3327942 1.4568329 3.0177917 1.4568329 5.0549927c0 2.037201 -0.48561096 3.7049255 -1.4568329 5.0032043c-0.9712219 1.2913818 -2.454483 1.9370728 -4.4497986 1.9370728c-2.067978 0 -3.5479279 -0.6456909 -4.439865 -1.9370728c-0.8919525 -1.2982788 -1.3379211 -2.9660034 -1.3379211 -5.0032043c0 -2.037201 0.44596863 -3.7221985 1.3379211 -5.0549927c0.89193726 -1.3397217 2.3718872 -2.0095825 4.439865 -2.0095825zm-32.083725 13.041504l0 8.721924c-1.215683 1.401886 -2.7385864 2.1028137 -4.5687256 2.1028137c-1.136383 0 -2.1010132 -0.35910034 -2.8938446 -1.077301c-0.78622437 -0.72509766 -1.1793365 -1.7022705 -1.1793365 -2.931488c0 -2.037201 0.8721161 -3.6807556 2.6163483 -4.9306946c1.7442474 -1.2568359 3.7527618 -1.8852539 6.0255585 -1.8852539zm-3.656952 -17.495697c-2.1076202 0 -4.278015 0.28659058 -6.5111694 0.8597412c-2.2331543 0.57318115 -3.7362366 1.0289612 -4.509247 1.3673401l-1.8235321 0.82870483c0 3.4804993 1.3808594 6.0459595 4.142578 7.6964417l7.7301483 -7.002411c0.89193726 0 1.6418152 0.13809204 2.2496643 0.41433716c0.60783386 0.2762146 1.0637207 0.5869751 1.3676453 0.9322815c0.31051636 0.3383789 0.54507446 0.91156006 0.7036438 1.7195129c0.16516113 0.8010559 0.2576599 1.4881897 0.27748108 2.0613708c0.019821167 0.57318115 0.02973938 1.4950867 0.02973938 2.765747l0 1.9163513c-6.494644 0 -11.195496 0.9667969 -14.10257 2.9003906c-2.9004517 1.9267273 -4.3506775 4.7338867 -4.3506775 8.42157c0 2.9280396 0.9447937 5.1343994 2.834381 6.6191406c1.8895874 1.4847412 4.2350616 2.2271118 7.0364227 2.2271118c3.2043762 0 6.1675873 -1.0807495 8.889664 -3.2422485c1.4997864 2.161499 3.792389 3.2422485 6.8778534 3.2422485c1.3015594 0 2.560196 -0.27624512 3.775879 -0.82870483c1.2156677 -0.5524597 2.0052032 -0.99786377 2.3685913 -1.3362427c0.36999512 -0.3383789 0.6573944 -0.614624 0.86221313 -0.82870483l0 -2.7346497l-4.757019 0l0 -17.050293c0 -7.2993774 -4.3638916 -10.949036 -13.09169 -10.949036zm38.97148 36.524445c2.801361 0 4.730591 0.34875488 5.7877045 1.0462341c1.0571136 0.7043762 1.5856781 1.7367859 1.5856781 3.097229c0 1.7816772 -0.9150696 3.2664185 -2.7451935 4.454193c-1.8235321 1.1877747 -4.4431915 1.7816772 -7.8589935 1.7816772c-5.1930695 0 -7.7895966 -1.9508667 -7.7895966 -5.8526c0 -1.698822 0.44596863 -3.2077332 1.3379059 -4.5267334zm15.767517 -37.166687l-9.494202 3.6980286c-2.6824188 -1.698822 -5.850464 -2.5482178 -9.50412 -2.5482178c-4.2218475 0 -7.713623 1.073822 -10.475327 3.221527c-2.7551117 2.1407776 -4.13266 4.737335 -4.13266 7.789673c0 2.037201 0.5880127 3.8948364 1.7640533 5.572937c1.1760406 1.6711731 2.8211823 2.9970703 4.9354095 3.9776917l-7.0066833 6.2980347c-0.07928467 0.7182007 -0.049560547 1.4191284 0.08918762 2.1028137c0.14535522 0.6767578 0.34025574 1.2706604 0.5847168 1.7816772c0.6474762 1.2706604 1.5196075 2.309967 2.6163635 3.1179504c-3.6140137 1.9888306 -5.4210205 4.682068 -5.4210205 8.079712c0 5.7248535 5.744751 8.58728 17.234268 8.58728c5.4375305 0 9.669281 -1.2188721 12.695267 -3.6565857c3.026001 -2.4377441 4.538986 -5.289795 4.538986 -8.556213c0 -3.3562012 -1.0868378 -5.9665527 -3.2605286 -7.8311157c-2.1736908 -1.8645325 -5.269058 -2.796814 -9.286087 -2.796814l-4.4497833 0c-2.0283508 0 -3.4686584 -0.09667969 -4.3209534 -0.29003906c-0.8523102 -0.19335938 -1.5196075 -0.7147522 -2.0019226 -1.564148l2.675827 -3.8741455c0.68711853 0.04144287 1.7607574 0.062164307 3.2208862 0.062164307c4.505951 0 8.086929 -1.0496826 10.74292 -3.1490173c2.662613 -2.0993347 3.9939117 -4.7200623 3.9939117 -7.8621826c0 -1.9129028 -0.6474762 -3.7601929 -1.9424438 -5.54187l6.699463 0c0.15856934 -0.7182007 0.237854 -1.7989502 0.237854 -3.2422485c0 -1.2292175 -0.24446106 -2.3548584 -0.7333832 -3.376892z" fill-rule="evenodd"/><path stroke="#000000" stroke-width="1.0" stroke-linejoin="round" stroke-linecap="butt" d="m239.40733 383.17557c-1.5856628 0 -2.92688 0.5628052 -4.023636 1.688446c-1.096756 1.1187439 -1.6451263 2.5068054 -1.6451263 4.1641846c0 1.6987915 0.54837036 3.1213684 1.6451263 4.2677307c1.096756 1.1394653 2.437973 1.7091675 4.023636 1.7091675c1.6187134 0 2.9665375 -0.56970215 4.0434723 -1.7091675c1.0769348 -1.1463623 1.6154022 -2.5689392 1.6154022 -4.2677307c0 -1.6573792 -0.5384674 -3.0454407 -1.6154022 -4.1641846c-1.0769348 -1.1256409 -2.424759 -1.688446 -4.0434723 -1.688446zm-0.12882996 15.651855l-9.741959 2.4135742l0 3.376892l5.1831512 0l0 21.380188l-5.1831512 1.2741089l0 3.376892l19.73169 0l0 -3.376892l-5.1732483 -1.2741089l0 -27.170654z" fill-rule="evenodd"/><path stroke="#000000" stroke-width="1.0" stroke-linejoin="round" stroke-linecap="butt" d="m267.53586 397.87445c-4.2218323 0 -7.8854065 1.5606995 -10.990692 4.682068c-3.1052551 3.114502 -4.657898 7.1336365 -4.657898 12.057434c0 5.2138367 1.6220093 9.350372 4.866028 12.409607c3.2506409 3.0523376 7.1685486 4.5785217 11.753784 4.5785217c3.4488525 0 6.81839 -0.72164917 10.108643 -2.1649475l-0.7333679 -3.749817c-1.1760254 0.37982178 -2.3223572 0.6767578 -3.4389038 0.8908386c-1.1165771 0.21408081 -2.262909 0.32110596 -3.4389343 0.32110596c-2.801361 0 -5.0741577 -0.8701172 -6.81839 -2.6103516c-1.869751 -2.1269836 -2.7815247 -5.3105164 -2.7352905 -9.550659c0 -3.7774353 0.64749146 -6.7158203 1.9424438 -8.815186c1.3015747 -2.0993347 2.804657 -3.4045105 4.5092773 -3.9155273l0.3666687 0l5.232727 6.2980347c2.8410034 -1.6504822 4.3242493 -4.2366943 4.4497986 -7.758606c-3.4158325 -1.7816772 -6.887787 -2.6725159 -10.415894 -2.6725159z" fill-rule="evenodd"/><path fill="#000000" d="m241.36484 133.65085c0.9619293 -60.25065 99.061005 -36.04265 24.75589 68.00787c-123.816925 -31.965225 -64.22702 -113.54724 -24.75589 -68.00787z" fill-rule="evenodd"/><path stroke="#000000" stroke-width="1.0" stroke-linejoin="round" stroke-linecap="butt" d="m241.36484 133.65085c0.9619293 -60.25065 99.061005 -36.04265 24.75589 68.00787c-123.816925 -31.965225 -64.22702 -113.54724 -24.75589 -68.00787z" fill-rule="evenodd"/></g></svg>